
<svg id="Layer_2" data-name="Layer 2" xmlns="http://www.w3.org/2000/svg" viewBox="0 0 75.92 64.22">
  <defs>
    <style>
      .cls-1 {
        fill: #fff;
      }

      .cls-1, .cls-2 {
        fill-rule: evenodd;
      }

      .cls-2 {
        fill: #ed1c24;
      }
    </style>
  </defs>
  <g id="svg2">
    <path id="path4" class="cls-2" d="m0,.03v55.09h64.91V.03S0,.03,0,.03Z"/>
    <path id="path6" class="cls-1" d="m53.69.03v8.54h11.1V.03h-11.1Z"/>
    <path id="path8" class="cls-2" d="m64.81,0v8.54h11.1V0h-11.1Z"/>
    <path id="path10" class="cls-1" d="m17.54,48.43l-2.35-3.08-2.01,3.08h-3.82l3.93-5.59-4.06-5.33h3.96l2.28,3.01,1.95-3.01h3.82l-3.87,5.5,4.13,5.42s-3.96,0-3.96,0Zm12.29-6.63v2.53h-7.77v-2.53h7.77Zm9.96,1.02c.71.14,1.27.46,1.69.95.42.49.63,1.05.63,1.68,0,.93-.35,1.66-1.06,2.19-.71.53-1.7.79-2.98.79h-5.98v-10.93h5.79c1.23,0,2.2.25,2.91.74.7.5,1.05,1.19,1.05,2.09,0,.64-.19,1.18-.56,1.6-.37.43-.87.72-1.48.88h0Zm-4.35-.98h1.7c.85,0,1.27-.32,1.27-.95s-.42-.98-1.27-.98h-1.7v1.92h0Zm1.95,4.14c.85,0,1.27-.32,1.27-.96,0-.33-.11-.58-.33-.76-.22-.18-.54-.26-.95-.26h-1.94v1.98h1.95Zm9.31-6.25v8.69h-3.36v-8.69h3.36Zm4.87,6.17h4.1v2.53h-7.8v-2.4l3.82-3.77h-3.79v-2.53h7.63v2.4l-3.96,3.77h0Z"/>
    <path id="path12" class="cls-2" d="m5.75,57.78v1.24h-1.69v5.13h-1.55v-5.13H.82v-1.24h4.93Zm5.55,3.76c0,.15,0,.3-.03.45h-3.51c.02.31.13.55.3.72.18.17.4.25.66.25.39,0,.66-.16.81-.49h1.65c-.08.33-.24.63-.46.9-.22.27-.5.47-.83.63-.33.15-.7.23-1.12.23-.5,0-.94-.11-1.32-.32-.39-.21-.69-.51-.91-.91-.22-.39-.33-.85-.33-1.38s.11-.99.32-1.38c.21-.39.52-.7.9-.91.39-.21.83-.32,1.33-.32s.93.1,1.31.31c.38.21.68.5.89.88.21.38.32.83.32,1.33h0Zm-1.59-.41c0-.27-.09-.48-.27-.63-.18-.16-.41-.24-.68-.24s-.48.08-.66.23c-.18.15-.29.37-.33.64h1.94Zm2.1.49c0-.53.11-.99.32-1.38.21-.39.51-.7.9-.91.38-.21.82-.32,1.32-.32.63,0,1.17.17,1.59.5.43.33.71.8.84,1.41h-1.65c-.14-.39-.41-.58-.81-.58-.28,0-.51.11-.68.33-.17.22-.25.54-.25.95s.08.73.25.95c.17.22.4.33.68.33.4,0,.67-.19.81-.58h1.65c-.13.59-.41,1.06-.84,1.4-.43.34-.96.51-1.59.51-.5,0-.94-.11-1.32-.32-.38-.21-.68-.51-.9-.91-.21-.39-.32-.85-.32-1.38Zm8.91-2.59c.58,0,1.05.19,1.4.58.35.38.53.91.53,1.58v2.96h-1.54v-2.75c0-.34-.09-.6-.26-.79-.18-.19-.41-.28-.71-.28s-.53.09-.71.28c-.18.19-.26.45-.26.79v2.75h-1.55v-6.71h1.55v2.33c.16-.22.37-.4.64-.54.27-.13.58-.2.92-.2h0Zm5.28,3.66l1.1-3.61h1.65l-1.8,5.06h-1.91l-1.8-5.06h1.66l1.1,3.61h0Zm8.17-1.16c0,.15,0,.3-.03.45h-3.51c.02.31.13.55.3.72.18.17.4.25.66.25.39,0,.66-.16.81-.49h1.65c-.08.33-.24.63-.46.9-.22.27-.5.47-.83.63-.33.15-.7.23-1.12.23-.5,0-.94-.11-1.32-.32-.39-.21-.69-.51-.91-.91-.22-.39-.33-.85-.33-1.38s.11-.99.32-1.38c.21-.39.52-.7.9-.91.39-.21.83-.32,1.33-.32s.93.1,1.31.31c.38.21.68.5.89.88.21.38.32.83.32,1.33h0Zm-1.59-.41c0-.27-.09-.48-.27-.63-.18-.16-.41-.24-.68-.24s-.48.08-.66.23c-.18.15-.29.37-.33.64h1.94Zm5.49-2.1c.59,0,1.07.19,1.42.58.35.38.53.91.53,1.58v2.96h-1.54v-2.75c0-.34-.09-.6-.26-.79-.18-.19-.41-.28-.71-.28s-.53.09-.71.28c-.18.19-.26.45-.26.79v2.75h-1.55v-5.06h1.55v.67c.16-.22.37-.4.64-.53.27-.13.57-.2.9-.2h0Zm5.85,3.8v1.32h-.79c-.56,0-1-.14-1.32-.41-.31-.28-.47-.72-.47-1.35v-2.01h-.62v-1.29h.62v-1.23h1.55v1.23h1.02v1.29h-1.02v2.03c0,.15.04.26.11.33.07.07.19.1.36.1h.55Zm5.86-3.75v5.06h-1.55v-.69c-.16.22-.37.4-.64.54-.27.14-.57.2-.89.2-.39,0-.73-.09-1.03-.26-.3-.17-.53-.42-.69-.75-.16-.33-.24-.71-.24-1.15v-2.96h1.54v2.75c0,.34.09.6.26.79.18.19.41.28.71.28s.54-.09.72-.28c.18-.19.26-.45.26-.79v-2.75h1.55,0Zm2.67.84c.18-.28.41-.5.68-.66.27-.16.57-.24.91-.24v1.64h-.43c-.39,0-.68.08-.87.25-.19.17-.29.46-.29.88v2.35h-1.55v-5.06h1.55v.84Zm7.1,1.61c0,.15,0,.3-.03.45h-3.51c.02.31.13.55.3.72.18.17.4.25.66.25.39,0,.66-.16.81-.49h1.65c-.08.33-.24.63-.46.9-.22.27-.5.47-.83.63-.33.15-.7.23-1.12.23-.5,0-.94-.11-1.32-.32-.39-.21-.69-.51-.91-.91-.22-.39-.33-.85-.33-1.38s.11-.99.32-1.38c.21-.39.52-.7.9-.91.39-.21.83-.32,1.33-.32s.93.1,1.31.31c.38.21.68.5.89.88.21.38.32.83.32,1.33h0Zm-1.59-.41c0-.27-.09-.48-.27-.63-.18-.16-.41-.24-.68-.24s-.48.08-.66.23c-.18.15-.29.37-.33.64h1.94Zm4.46,3.09c-.44,0-.83-.08-1.18-.23-.34-.15-.62-.36-.82-.62-.2-.26-.31-.56-.34-.88h1.53c.02.18.1.32.24.43.15.11.32.16.54.16.19,0,.34-.04.45-.11.11-.08.16-.17.16-.29,0-.15-.08-.25-.23-.32-.15-.07-.4-.15-.74-.23-.36-.08-.66-.17-.91-.27-.24-.09-.45-.24-.63-.44-.18-.2-.26-.48-.26-.82,0-.29.08-.55.24-.79.16-.24.4-.43.71-.57.31-.14.68-.21,1.11-.21.63,0,1.14.16,1.5.47.37.31.58.73.63,1.25h-1.43c-.02-.18-.1-.31-.23-.42-.13-.1-.3-.15-.51-.15-.18,0-.32.03-.42.1-.1.07-.15.16-.15.29,0,.15.08.25.23.33.15.07.39.15.72.22.37.1.68.19.92.29.24.09.44.24.62.45.18.21.27.49.28.84,0,.3-.08.56-.25.79-.17.23-.41.42-.72.55-.31.13-.67.2-1.08.2h0Z"/>
    <path id="path16" class="cls-1" d="m43.35,35.42v2.63h3.48v-2.63h-3.48Z"/>
    <g id="g18">
      <path id="path20" class="cls-2" d="m54.93,6.93l-.1.59.59.1.1-.59-.59-.1Z"/>
      <path id="path22" class="cls-2" d="m56.08,6.16l-.14.79.79.14.14-.79-.79-.14Z"/>
      <path id="path24" class="cls-2" d="m57.5,5.04l-.17.99.99.17.17-.99-.99-.17Z"/>
      <path id="path26" class="cls-2" d="m59.05,3.79l-.21,1.18,1.18.21.21-1.18-1.18-.21Z"/>
      <path id="path28" class="cls-2" d="m60.84,2.63l-.23,1.31,1.31.23.23-1.31-1.31-.23Z"/>
      <path id="path30" class="cls-2" d="m62.55,1.34l-.23,1.31,1.31.23.23-1.31-1.31-.23h0Z"/>
    </g>
  </g>
</svg>